REM MD5 d037f28cf73083b671cdc883b07cf3e4
FILE "Euro Demo 75 (Europe, Australia).bin" BINARY
  TRACK 01 MODE2/2352
    INDEX 01 00:00:00
  TRACK 02 AUDIO
    INDEX 00 45:03:66
    INDEX 01 45:05:66
  TRACK 03 AUDIO
    INDEX 00 46:06:64
    INDEX 01 46:08:64
REM LEADOUT 49:10:21
